<svg width="40" height="41" viewBox="0 0 40 41" fill="none" xmlns="http://www.w3.org/2000/svg">
<g clip-path="url(#clip0_12_1288)">
<path d="M5.37555 34.515L6.30859 35.448L13.6753 28.0813L12.7423 27.1482L5.37555 34.515Z" fill="#B4E019"/>
<path d="M3.22246 31.7671L3.97949 32.8479L12.5125 26.8708L11.7554 25.7901L3.22246 31.7671Z" fill="#B4E019"/>
<path d="M1.57865 28.6932L2.13672 29.8889L11.5772 25.4827L11.0191 24.287L1.57865 28.6932Z" fill="#B4E019"/>
<path d="M0.495174 25.3764L0.836914 26.6509L10.8996 23.9527L10.5578 22.6782L0.495174 25.3764Z" fill="#B4E019"/>
<path d="M0.00218337 21.9184L0.117188 23.2329L10.4956 22.3249L10.3806 21.0104L0.00218337 21.9184Z" fill="#B4E019"/>
<path d="M-0.0015063 19.747L10.377 20.655L10.492 19.3405L0.113498 18.4325L-0.0015063 19.747Z" fill="#5D1EE2"/>
<path d="M0.490595 16.2887L10.5537 18.9851L10.8952 17.7105L0.832113 15.0141L0.490595 16.2887Z" fill="#5D1EE2"/>
<path d="M1.57675 12.9725L11.0195 17.3738L11.577 16.1778L2.1342 11.7766L1.57675 12.9725Z" fill="#5D1EE2"/>
<path d="M3.22081 9.89871L11.7559 15.8728L12.5125 14.7918L3.97746 8.81769L3.22081 9.89871Z" fill="#5D1EE2"/>
<path d="M5.37676 7.14836L12.7422 14.5164L13.6754 13.5835L6.30997 6.21548L5.37676 7.14836Z" fill="#5D1EE2"/>
<path d="M7.97955 4.81644L13.9521 13.3525L15.0333 12.5961L9.0607 4.05997L7.97955 4.81644Z" fill="#5D1EE2"/>
<path d="M10.9382 2.976L15.3428 12.4172L16.5386 11.8594L12.134 2.41813L10.9382 2.976Z" fill="#5D1EE2"/>
<path d="M14.1776 1.67565L16.874 11.7388L18.1486 11.3973L15.4522 1.33413L14.1776 1.67565Z" fill="#5D1EE2"/>
<path d="M17.5909 0.955363L18.4971 11.334L19.8116 11.2192L18.9054 0.840588L17.5909 0.955363Z" fill="#5D1EE2"/>
<path d="M20.1708 11.2182L21.4854 11.333L22.3915 0.954389L21.077 0.839614L20.1708 11.2182Z" fill="#B4E019"/>
<path d="M21.8358 11.3963L23.1104 11.7378L25.8068 1.67467L24.5322 1.33316L21.8358 11.3963Z" fill="#B4E019"/>
<path d="M23.4543 11.8569L24.6465 12.4133L29.0527 2.97286L27.8604 2.41641L23.4543 11.8569Z" fill="#B4E019"/>
<path d="M24.9524 12.5993L26.0303 13.3538L32.0044 4.81871L30.9265 4.06425L24.9524 12.5993Z" fill="#B4E019"/>
<path d="M26.3096 13.5818L27.2417 14.5139L34.6065 7.14913L33.6744 6.21702L26.3096 13.5818Z" fill="#B4E019"/>
<path d="M14.2081 28.4836C16.0498 29.8799 18.2798 30.521 20.4791 30.4105L24.5208 40.3213C18.4218 41.7307 11.7896 40.2501 6.8086 35.8792L14.2081 28.4836ZM35.0368 7.6514C41.9373 15.511 41.6375 27.4832 34.1385 34.9822C33.0508 36.0699 31.8678 37.0042 30.618 37.7888L26.5541 27.8253C26.6275 27.7564 26.7026 27.6884 26.7742 27.6167C30.2032 24.1876 30.4911 18.81 27.6414 15.051L27.6374 15.0511L35.0368 7.6514Z" fill="white"/>
</g>
<defs>
<clipPath id="clip0_12_1288">
<rect width="40" height="39.9962" fill="white" transform="translate(0 40.8391) rotate(-90)"/>
</clipPath>
</defs>
</svg>
