<svg width="40" height="41" viewBox="0 0 40 41" fill="none" xmlns="http://www.w3.org/2000/svg">
<g clip-path="url(#clip0_12_3336)">
<path d="M5.37555 34.4451L6.30859 35.3782L13.6753 28.0115L12.7423 27.0784L5.37555 34.4451Z" fill="#6369F2"/>
<path d="M3.22246 31.6973L3.97949 32.7781L12.5125 26.801L11.7554 25.7202L3.22246 31.6973Z" fill="#6369F2"/>
<path d="M1.57865 28.6234L2.13672 29.8191L11.5772 25.4129L11.0191 24.2172L1.57865 28.6234Z" fill="#6369F2"/>
<path d="M0.495174 25.3066L0.836914 26.5811L10.8996 23.8829L10.5578 22.6084L0.495174 25.3066Z" fill="#6369F2"/>
<path d="M0.00218337 21.8486L0.117188 23.1631L10.4956 22.2551L10.3806 20.9406L0.00218337 21.8486Z" fill="#6369F2"/>
<path d="M-0.0015063 19.6772L10.377 20.5852L10.492 19.2707L0.113498 18.3627L-0.0015063 19.6772Z" fill="#6369F2"/>
<path d="M0.490595 16.2189L10.5537 18.9153L10.8952 17.6407L0.832113 14.9443L0.490595 16.2189Z" fill="#6369F2"/>
<path d="M1.57675 12.9027L11.0195 17.304L11.577 16.108L2.1342 11.7067L1.57675 12.9027Z" fill="#6369F2"/>
<path d="M3.22081 9.82889L11.7559 15.803L12.5125 14.722L3.97746 8.74787L3.22081 9.82889Z" fill="#6369F2"/>
<path d="M5.37676 7.07854L12.7422 14.4465L13.6754 13.5137L6.30997 6.14566L5.37676 7.07854Z" fill="#6369F2"/>
<path d="M7.97955 4.74662L13.9521 13.2827L15.0333 12.5262L9.0607 3.99015L7.97955 4.74662Z" fill="#6369F2"/>
<path d="M10.9382 2.90617L15.3428 12.3474L16.5386 11.7895L12.134 2.34831L10.9382 2.90617Z" fill="#6369F2"/>
<path d="M14.1776 1.60583L16.874 11.6689L18.1486 11.3274L15.4522 1.26431L14.1776 1.60583Z" fill="#6369F2"/>
<path d="M17.5909 0.885539L18.4971 11.2642L19.8116 11.1494L18.9054 0.770764L17.5909 0.885539Z" fill="#6369F2"/>
<path d="M20.1708 11.1484L21.4854 11.2632L22.3915 0.884565L21.077 0.76979L20.1708 11.1484Z" fill="#6369F2"/>
<path d="M21.8358 11.3265L23.1104 11.668L25.8068 1.60485L24.5322 1.26333L21.8358 11.3265Z" fill="#6369F2"/>
<path d="M23.4543 11.7871L24.6465 12.3435L29.0527 2.90303L27.8604 2.34658L23.4543 11.7871Z" fill="#6369F2"/>
<path d="M24.9524 12.5295L26.0303 13.2839L32.0044 4.74888L30.9265 3.99442L24.9524 12.5295Z" fill="#6369F2"/>
<path d="M26.3096 13.512L27.2417 14.4441L34.6065 7.0793L33.6744 6.1472L26.3096 13.512Z" fill="#6369F2"/>
<path d="M14.2081 28.4137C16.0498 29.8101 18.2798 30.4512 20.4791 30.3407L24.5208 40.2515C18.4218 41.6609 11.7896 40.1802 6.8086 35.8094L14.2081 28.4137ZM35.0368 7.58158C41.9373 15.4412 41.6375 27.4134 34.1385 34.9123C33.0508 36 31.8678 36.9343 30.618 37.719L26.5541 27.7555C26.6275 27.6865 26.7026 27.6186 26.7742 27.5469C30.2032 24.1178 30.491 18.7402 27.6414 14.9812L27.6374 14.9813L35.0368 7.58158Z" fill="#302A42"/>
</g>
<defs>
<clipPath id="clip0_12_3336">
<rect width="40" height="39.9962" fill="white" transform="translate(0 40.7693) rotate(-90)"/>
</clipPath>
</defs>
</svg>
