<svg width="40" height="40" viewBox="0 0 40 40" fill="none" xmlns="http://www.w3.org/2000/svg">
<g clip-path="url(#clip0_698_13541)">
<path d="M5.37555 33.6763L6.30859 34.6094L13.6753 27.2427L12.7423 26.3096L5.37555 33.6763Z" fill="#101010"/>
<path d="M3.22148 30.928L3.97852 32.0088L12.5115 26.0317L11.7544 24.951L3.22148 30.928Z" fill="#101010"/>
<path d="M1.57865 27.8541L2.13672 29.0498L11.5772 24.6436L11.0191 23.4479L1.57865 27.8541Z" fill="#101010"/>
<path d="M0.494197 24.537L0.835938 25.8115L10.8986 23.1134L10.5568 21.8389L0.494197 24.537Z" fill="#101010"/>
<path d="M0.00218337 21.0793L0.117188 22.3938L10.4956 21.4858L10.3806 20.1713L0.00218337 21.0793Z" fill="#101010"/>
<path d="M-0.0015063 18.9084L10.377 19.8164L10.492 18.5019L0.113498 17.5939L-0.0015063 18.9084Z" fill="#101010"/>
<path d="M0.489619 15.4491L10.5527 18.1455L10.8943 16.8709L0.831137 14.1745L0.489619 15.4491Z" fill="#101010"/>
<path d="M1.57675 12.1329L11.0195 16.5342L11.577 15.3382L2.1342 10.937L1.57675 12.1329Z" fill="#101010"/>
<path d="M3.22081 9.06009L11.7559 15.0342L12.5125 13.9532L3.97746 7.97907L3.22081 9.06009Z" fill="#101010"/>
<path d="M5.37676 6.30876L12.7422 13.6768L13.6754 12.7439L6.30997 5.37588L5.37676 6.30876Z" fill="#101010"/>
<path d="M7.98053 3.97733L13.9531 12.5134L15.0343 11.757L9.06168 3.22086L7.98053 3.97733Z" fill="#101010"/>
<path d="M10.9373 2.13688L15.3418 11.5781L16.5376 11.0203L12.1331 1.57902L10.9373 2.13688Z" fill="#101010"/>
<path d="M14.1786 0.836296L16.875 10.8994L18.1496 10.5579L15.4532 0.494778L14.1786 0.836296Z" fill="#101010"/>
<path d="M17.5919 0.116251L18.498 10.4949L19.8126 10.3801L18.9064 0.00147677L17.5919 0.116251Z" fill="#101010"/>
<path d="M20.1718 10.3791L21.4863 10.4939L22.3925 0.115278L21.078 0.000503063L20.1718 10.3791Z" fill="#101010"/>
<path d="M21.8368 10.5572L23.1113 10.8987L25.8077 0.835563L24.5332 0.494045L21.8368 10.5572Z" fill="#101010"/>
<path d="M23.4543 11.0178L24.6465 11.5742L29.0527 2.13374L27.8604 1.5773L23.4543 11.0178Z" fill="#101010"/>
<path d="M24.9514 11.7602L26.0293 12.5146L32.0034 3.97959L30.9255 3.22513L24.9514 11.7602Z" fill="#101010"/>
<path d="M26.3105 12.7427L27.2427 13.6748L34.6074 6.31002L33.6753 5.37791L26.3105 12.7427Z" fill="#101010"/>
<path d="M14.2084 27.6459C16.05 29.042 18.28 29.6824 20.4791 29.5719L24.5208 39.4827C18.4218 40.8921 11.7896 39.4115 6.8086 35.0406L14.2084 27.6459ZM35.0359 6.81303C41.9365 14.6726 41.6376 26.6445 34.1385 34.1435C33.0508 35.2313 31.8678 36.1655 30.618 36.9502L26.5544 26.9876C26.6278 26.9187 26.7028 26.8507 26.7745 26.779C30.2036 23.3498 30.4913 17.9715 27.6414 14.2124L27.6374 14.2125L35.0359 6.81303Z" fill="#101010"/>
</g>
<defs>
<clipPath id="clip0_698_13541">
<rect width="40" height="39.9962" fill="white" transform="translate(0 40) rotate(-90)"/>
</clipPath>
</defs>
</svg>
