<svg width="41" height="40" viewBox="0 0 41 40" fill="none" xmlns="http://www.w3.org/2000/svg">
<g clip-path="url(#clip0_111_6611)">
<path d="M5.60016 33.6763L6.5332 34.6094L13.8999 27.2427L12.9669 26.3096L5.60016 33.6763Z" fill="white"/>
<path d="M3.44609 30.928L4.20312 32.0088L12.7361 26.0317L11.9791 24.951L3.44609 30.928Z" fill="white"/>
<path d="M1.80326 27.8541L2.36133 29.0498L11.8018 24.6436L11.2437 23.4479L1.80326 27.8541Z" fill="white"/>
<path d="M0.718807 24.5373L1.06055 25.8118L11.1232 23.1136L10.7815 21.8391L0.718807 24.5373Z" fill="white"/>
<path d="M0.226793 21.0793L0.341797 22.3938L10.7203 21.4858L10.6053 20.1713L0.226793 21.0793Z" fill="white"/>
<path d="M0.223103 18.9084L10.6016 19.8164L10.7166 18.5019L0.338107 17.5939L0.223103 18.9084Z" fill="white"/>
<path d="M0.714228 15.4491L10.7773 18.1455L11.1189 16.8709L1.05575 14.1745L0.714228 15.4491Z" fill="white"/>
<path d="M1.80136 12.1329L11.2441 16.5342L11.8016 15.3382L2.35881 10.937L1.80136 12.1329Z" fill="white"/>
<path d="M3.44542 9.06009L11.9805 15.0342L12.7371 13.9532L4.20207 7.97907L3.44542 9.06009Z" fill="white"/>
<path d="M5.60137 6.30876L12.9668 13.6768L13.9 12.7439L6.53458 5.37588L5.60137 6.30876Z" fill="white"/>
<path d="M8.20514 3.97733L14.1777 12.5134L15.2589 11.757L9.28629 3.22086L8.20514 3.97733Z" fill="white"/>
<path d="M11.1619 2.13688L15.5664 11.5781L16.7622 11.0203L12.3577 1.57902L11.1619 2.13688Z" fill="white"/>
<path d="M14.4032 0.836296L17.0996 10.8994L18.3742 10.5579L15.6778 0.494778L14.4032 0.836296Z" fill="white"/>
<path d="M17.8165 0.116251L18.7227 10.4949L20.0372 10.3801L19.131 0.00147677L17.8165 0.116251Z" fill="white"/>
<path d="M20.3945 10.3791L21.709 10.4939L22.6152 0.115278L21.3006 0.000503063L20.3945 10.3791Z" fill="white"/>
<path d="M22.0614 10.5572L23.3359 10.8987L26.0323 0.835563L24.7578 0.494045L22.0614 10.5572Z" fill="white"/>
<path d="M23.6789 11.0178L24.8711 11.5742L29.2773 2.13374L28.0851 1.5773L23.6789 11.0178Z" fill="white"/>
<path d="M25.176 11.7602L26.2539 12.5146L32.228 3.97959L31.1501 3.22513L25.176 11.7602Z" fill="white"/>
<path d="M26.5352 12.7427L27.4673 13.6748L34.832 6.31002L33.8999 5.37791L26.5352 12.7427Z" fill="white"/>
<path d="M14.433 27.6459C16.2746 29.042 18.5046 29.6824 20.7037 29.5719L24.7454 39.4827C18.6464 40.8921 12.0143 39.4115 7.03321 35.0406L14.433 27.6459ZM35.2605 6.81303C42.1611 14.6726 41.8622 26.6445 34.3631 34.1435C33.2754 35.2313 32.0924 36.1655 30.8426 36.9502L26.779 26.9876C26.8524 26.9187 26.9274 26.8507 26.9991 26.779C30.4282 23.3498 30.7159 17.9715 27.866 14.2124L27.862 14.2125L35.2605 6.81303Z" fill="url(#paint0_linear_111_6611)"/>
</g>
<defs>
<linearGradient id="paint0_linear_111_6611" x1="19.5603" y1="11.0199" x2="27.0233" y2="38.8723" gradientUnits="userSpaceOnUse">
<stop stop-color="#1AAFD8"/>
<stop offset="0.491915" stop-color="#3055EB"/>
<stop offset="1" stop-color="#B443FF"/>
</linearGradient>
<clipPath id="clip0_111_6611">
<rect width="40" height="39.9962" fill="white" transform="translate(0.224609 40) rotate(-90)"/>
</clipPath>
</defs>
</svg>
